<mxfile host="65bd71144e">
    <diagram id="3Ai8TNl8ocz3UQmw9XgB" name="Page-1">
        <mxGraphModel dx="1079" dy="1004" grid="1" gridSize="10" guides="1" tooltips="1" connect="1" arrows="1" fold="1" page="1" pageScale="1" pageWidth="850" pageHeight="1100" math="0" shadow="0">
            <root>
                <mxCell id="0"/>
                <mxCell id="1" parent="0"/>
                <mxCell id="2" value="" style="shape=datastore;whiteSpace=wrap;html=1;" vertex="1" parent="1">
                    <mxGeometry x="270" y="332" width="100" height="100" as="geometry"/>
                </mxCell>
                <mxCell id="3" value="" style="image;html=1;image=img/lib/clip_art/general/Empty_Folder_128x128.png" vertex="1" parent="1">
                    <mxGeometry x="20" y="340" width="80" height="80" as="geometry"/>
                </mxCell>
                <mxCell id="4" value="" style="shadow=0;dashed=0;html=1;strokeColor=none;fillColor=#4495D1;labelPosition=center;verticalLabelPosition=bottom;verticalAlign=top;align=center;outlineConnect=0;shape=mxgraph.veeam.script;" vertex="1" parent="1">
                    <mxGeometry x="160" y="357.6" width="44.8" height="44.8" as="geometry"/>
                </mxCell>
                <mxCell id="5" value="" style="sketch=0;outlineConnect=0;fontColor=#232F3E;gradientColor=none;fillColor=#3F8624;strokeColor=none;dashed=0;verticalLabelPosition=bottom;verticalAlign=top;align=center;html=1;fontSize=12;fontStyle=0;aspect=fixed;pointerEvents=1;shape=mxgraph.aws4.notebook;" vertex="1" parent="1">
                    <mxGeometry x="286" y="550" width="68" height="78" as="geometry"/>
                </mxCell>
                <mxCell id="6" value="" style="image;html=1;image=img/lib/clip_art/general/Empty_Folder_128x128.png" vertex="1" parent="1">
                    <mxGeometry x="30" y="200" width="80" height="80" as="geometry"/>
                </mxCell>
                <mxCell id="7" value="" style="image;html=1;image=img/lib/clip_art/general/Empty_Folder_128x128.png" vertex="1" parent="1">
                    <mxGeometry x="30" y="460" width="80" height="80" as="geometry"/>
                </mxCell>
                <mxCell id="8" value="" style="edgeStyle=none;html=1;strokeColor=#808080;endArrow=block;endSize=10;dashed=0;verticalAlign=bottom;strokeWidth=2;" edge="1" parent="1">
                    <mxGeometry width="160" relative="1" as="geometry">
                        <mxPoint x="110" y="380" as="sourcePoint"/>
                        <mxPoint x="270" y="380" as="targetPoint"/>
                    </mxGeometry>
                </mxCell>
                <mxCell id="9" value="" style="sketch=0;outlineConnect=0;fontColor=#232F3E;gradientColor=none;fillColor=#067F68;strokeColor=none;dashed=0;verticalLabelPosition=bottom;verticalAlign=top;align=center;html=1;fontSize=12;fontStyle=0;aspect=fixed;pointerEvents=1;shape=mxgraph.aws4.sagemaker_model;" vertex="1" parent="1">
                    <mxGeometry x="560" y="354" width="78" height="78" as="geometry"/>
                </mxCell>
            </root>
        </mxGraphModel>
    </diagram>
</mxfile>